<svg width="31" height="27" viewBox="0 0 31 27" fill="none" xmlns="http://www.w3.org/2000/svg">
<path d="M22.6742 0.910828C23.2355 1.00629 23.8026 1.06659 24.3524 1.20727C26.5634 1.78508 28.2073 2.98593 29.2784 4.77965C29.9199 5.85489 30.1834 7.00549 30.1776 8.21638C30.1719 11.9495 30.1776 15.6827 30.1776 19.4159C30.1776 21.0488 29.6564 22.5411 28.5108 23.8324C26.867 25.6763 24.6904 26.6109 22.0269 26.631C19.69 26.6511 17.353 26.636 15.0103 26.636C13.0629 26.636 11.1154 26.636 9.16792 26.636C6.28682 26.631 3.9785 25.6261 2.29451 23.5661C1.3036 22.3552 0.851096 20.9785 0.851096 19.4912C0.845369 15.6626 0.839641 11.839 0.851096 8.01038C0.862552 4.90024 3.11359 2.20211 6.48729 1.25751C7.08872 1.09171 7.73023 1.02639 8.35457 0.910828C13.1259 0.910828 17.9029 0.910828 22.6742 0.910828ZM15.5144 24.3499C15.5144 24.3549 15.5144 24.3549 15.5144 24.3499C17.5363 24.3549 19.5582 24.3549 21.5859 24.3549C22.342 24.3549 23.0923 24.3248 23.814 24.1037C26.1281 23.4003 27.56 21.6317 27.5715 19.4259C27.5829 15.6676 27.5772 11.9093 27.5772 8.15106C27.5772 7.24666 27.371 6.38245 26.8326 5.60869C25.7099 3.98077 24.0374 3.19695 21.8837 3.19193C17.6279 3.1869 13.3722 3.19193 9.11637 3.19193C8.26865 3.19193 7.43811 3.30247 6.67058 3.63408C4.55128 4.55355 3.46872 6.06591 3.45726 8.13096C3.43435 11.8993 3.45154 15.6676 3.45726 19.431C3.45726 20.3354 3.66919 21.1945 4.21907 21.9683C5.33027 23.546 6.9627 24.3398 9.07628 24.3499C11.2185 24.3599 13.3664 24.3499 15.5144 24.3499Z" fill="white"/>
<path d="M23.0759 13.7885C23.0358 17.4714 19.6106 20.4409 15.4636 20.4007C11.3108 20.3605 7.93138 17.3609 7.96002 13.7382C7.98866 10.0955 11.4139 7.10597 15.5323 7.14115C19.7537 7.17632 23.053 10.1407 23.0759 13.7885ZM15.4865 18.1145C18.2301 18.1296 20.464 16.1852 20.464 13.7784C20.4697 11.3868 18.2645 9.45239 15.5151 9.43732C12.8173 9.42225 10.5891 11.3617 10.5662 13.7533C10.5433 16.1349 12.7543 18.0995 15.4865 18.1145Z" fill="white"/>
<path d="M23.3622 5.21678C24.3989 5.19144 25.2638 5.93664 25.2981 6.88969C25.3268 7.77684 24.4619 8.56259 23.4424 8.58287C22.3827 8.60315 21.5064 7.86809 21.4778 6.93531C21.4548 6.01268 22.2968 5.24213 23.3622 5.21678Z" fill="white"/>
</svg>
